<svg id="chevron.down" xmlns="http://www.w3.org/2000/svg" width="17.324" height="10.4" viewBox="0 0 17.324 10.4">
  <rect id="사각형_24042" data-name="사각형 24042" width="17.324" height="10.4" opacity="0"/>
  <path id="패스_7770" data-name="패스 7770" d="M8.486,10.4a.88.88,0,0,0,.654-.283L16.7,2.373a.871.871,0,0,0,.264-.625.876.876,0,0,0-.889-.9.927.927,0,0,0-.635.254L7.959,8.75H9L1.523,1.1A.892.892,0,0,0,.889.85a.876.876,0,0,0-.889.9.911.911,0,0,0,.264.635l7.559,7.734A.917.917,0,0,0,8.486,10.4Z"/>
</svg>
