<svg id="list.clipboard.fill" xmlns="http://www.w3.org/2000/svg" width="16.787" height="27.061" viewBox="0 0 16.787 27.061" style="margin-left: 7px">
  <rect id="사각형_24043" data-name="사각형 24043" width="16.787" height="27.06" fill="#fff" opacity="0"/>
  <path id="패스_7771" data-name="패스 7771" d="M16.426,6.914V21.729c0,2.051-1.006,3.066-3.027,3.066H3.027C1.006,24.795,0,23.779,0,21.729V6.914C0,4.863,1.006,3.848,3.027,3.848h.131a2.288,2.288,0,0,0-.013.254V5.127A2,2,0,0,0,5.2,7.227h6.035a2,2,0,0,0,2.051-2.1V4.1a2.267,2.267,0,0,0-.013-.254H13.4C15.42,3.848,16.426,4.863,16.426,6.914ZM3.77,18.32a.631.631,0,0,0-.635.625.646.646,0,0,0,.635.635H8.242a.638.638,0,0,0,.625-.635.623.623,0,0,0-.625-.625Zm0-3.769a.625.625,0,0,0-.635.625.633.633,0,0,0,.635.635h8.887a.633.633,0,0,0,.635-.635.625.625,0,0,0-.635-.625Zm0-3.584a.648.648,0,0,0-.635.645.638.638,0,0,0,.635.625h8.887a.638.638,0,0,0,.635-.625.648.648,0,0,0-.635-.645Z" fill="#fff"/>
  <path id="패스_7772" data-name="패스 7772" d="M10.332,3.135h.9a.864.864,0,0,1,.908.967V5.127a.864.864,0,0,1-.908.967H5.2a.864.864,0,0,1-.908-.967V4.1A.864.864,0,0,1,5.2,3.135h.9a2.123,2.123,0,0,1,4.238,0Zm-2.969.078a.85.85,0,1,0,.85-.859A.857.857,0,0,0,7.363,3.213Z" fill="#fff"/>
</svg>
