<svg id="folder.fill.badge.gearshape" xmlns="http://www.w3.org/2000/svg" width="32.637" height="21.279" viewBox="0 0 32.637 21.279">
  <rect id="사각형_24040" data-name="사각형 24040" width="32.637" height="21.279" opacity="0"/>
  <path id="패스_7767" data-name="패스 7767" d="M26.348,12.588a5.181,5.181,0,0,0,.879-.071v3.967c0,2.012-1.025,3.027-2.774,3.027H8.115q-3.062,0-3.066-3.027V8.477h15.4A6.3,6.3,0,0,0,26.348,12.588ZM12.637,2.363l.6.488a2.1,2.1,0,0,0,1.553.576h5.968a6.136,6.136,0,0,0-.7,2.861,5.335,5.335,0,0,0,.073.908H5.049V4.58c0-1.963.986-2.939,2.7-2.939h2.783A2.777,2.777,0,0,1,12.637,2.363Z"/>
  <path id="패스_7768" data-name="패스 7768" d="M25.928,11.338h.84a.6.6,0,0,0,.605-.488l.234-.967a2.592,2.592,0,0,0,.43-.166l.84.508a.6.6,0,0,0,.771-.068l.576-.586a.605.605,0,0,0,.059-.781l-.5-.85a2.3,2.3,0,0,0,.176-.391l.957-.234a.607.607,0,0,0,.5-.605v-.83a.612.612,0,0,0-.5-.586l-.947-.234c-.068-.166-.127-.293-.176-.4l.527-.869a.617.617,0,0,0-.078-.771l-.6-.576a.587.587,0,0,0-.752-.107l-.859.537a3.482,3.482,0,0,0-.43-.166l-.234-.977a.616.616,0,0,0-.605-.5h-.84a.618.618,0,0,0-.605.5l-.225.957a4.774,4.774,0,0,0-.449.186l-.84-.537a.614.614,0,0,0-.762.107l-.576.576a.625.625,0,0,0-.107.771l.537.869c-.049.107-.107.254-.166.4l-.957.234a.611.611,0,0,0-.488.586v.83a.608.608,0,0,0,.488.605l.967.234c.059.137.108.254.166.391l-.5.859a.617.617,0,0,0,.068.771l.566.586a.594.594,0,0,0,.771.068l.85-.508a3.143,3.143,0,0,0,.43.166l.225.967A.6.6,0,0,0,25.928,11.338Zm.42-3.418a1.626,1.626,0,1,1,1.621-1.631A1.634,1.634,0,0,1,26.348,7.92Z"/>
</svg>
